<?xml version="1.0" encoding="UTF-8"?>
<!DOCTYPE svg PUBLIC "-//W3C//DTD SVG 1.1//EN" "http://www.w3.org/Graphics/SVG/1.1/DTD/svg11.dtd">
<svg xmlns="http://www.w3.org/2000/svg" version="1.1" width="512px" height="512px" style="shape-rendering:geometricPrecision; text-rendering:geometricPrecision; image-rendering:optimizeQuality; fill-rule:evenodd; clip-rule:evenodd" xmlns:xlink="http://www.w3.org/1999/xlink">
<g><path style="opacity:0.933" fill="#000000" d="M 152.5,20.5 C 187.599,17.8123 218.599,27.6457 245.5,50C 252.986,53.4209 260.319,53.0876 267.5,49C 297.089,24.1861 330.756,15.8527 368.5,24C 392.428,35.6304 403.261,54.7971 401,81.5C 399.991,85.5129 399.324,89.5129 399,93.5C 412.434,107.27 423.1,122.936 431,140.5C 436.326,168.184 429.993,192.85 412,214.5C 395.587,232.071 376.087,245.071 353.5,253.5C 358.73,263.29 363.396,273.29 367.5,283.5C 387.252,269.971 409.085,262.305 433,260.5C 467.785,262.953 487.285,281.453 491.5,316C 489.814,334.058 484.314,350.891 475,366.5C 456.254,395.247 432.754,419.413 404.5,439C 422.964,439.304 440.964,442.304 458.5,448C 471.465,452.971 481.299,461.471 488,473.5C 490.27,477.93 490.937,482.597 490,487.5C 489.167,488.333 488.333,489.167 487.5,490C 429.5,490.667 371.5,490.667 313.5,490C 311.396,488.307 309.896,486.14 309,483.5C 291.625,489.053 273.791,491.387 255.5,490.5C 237.209,491.387 219.375,489.053 202,483.5C 201.104,486.14 199.604,488.307 197.5,490C 139.5,490.667 81.5,490.667 23.5,490C 20.5715,486.743 19.7382,482.909 21,478.5C 25.5981,466.126 33.7648,456.959 45.5,451C 65.0163,443.024 85.3497,439.024 106.5,439C 71.7836,415.956 45.2836,385.79 27,348.5C 19.7674,331.862 18.4341,314.862 23,297.5C 36.8257,268.668 59.659,256.835 91.5,262C 110.335,265.586 127.669,272.753 143.5,283.5C 147.966,273.45 152.633,263.45 157.5,253.5C 134.913,245.071 115.413,232.071 99,214.5C 80.7616,192.88 74.4283,168.213 80,140.5C 87.4401,122.614 98.1068,106.948 112,93.5C 103.699,56.749 117.199,32.4156 152.5,20.5 Z M 154.5,35.5 C 177.666,33.1544 193.166,42.8211 201,64.5C 204.226,88.9392 194.06,104.773 170.5,112C 140.308,113.14 125.141,98.64 125,68.5C 128.358,51.6452 138.191,40.6452 154.5,35.5 Z M 339.5,35.5 C 356.498,33.1033 369.998,38.7699 380,52.5C 390.983,73.2498 387.483,91.0832 369.5,106C 349.087,117.199 331.254,114.032 316,96.5C 304.22,75.6805 307.386,57.5138 325.5,42C 330.034,39.3327 334.7,37.166 339.5,35.5 Z M 209.5,45.5 C 213.423,46.7951 217.09,48.6284 220.5,51C 226.66,55.5804 232.993,59.9138 239.5,64C 250.167,68.6667 260.833,68.6667 271.5,64C 278.007,59.9138 284.34,55.5804 290.5,51C 293.91,48.6284 297.577,46.7951 301.5,45.5C 287.915,71.7363 291.582,95.2363 312.5,116C 332.918,130.946 354.252,132.279 376.5,120C 381.316,116.019 385.982,111.852 390.5,107.5C 400.741,117.751 409.074,129.418 415.5,142.5C 407.447,151.032 398.114,157.865 387.5,163C 345.712,182.458 301.712,191.625 255.5,190.5C 209.288,191.625 165.288,182.458 123.5,163C 112.886,157.865 103.553,151.032 95.5,142.5C 101.926,129.418 110.259,117.751 120.5,107.5C 136.889,125.573 156.889,131.406 180.5,125C 203.602,115.887 215.936,98.8866 217.5,74C 217.083,63.8282 214.416,54.3282 209.5,45.5 Z M 160.5,63.5 C 171.182,64.0052 175.015,69.3386 172,79.5C 165.223,86.142 159.223,85.4753 154,77.5C 152.398,70.9717 154.565,66.305 160.5,63.5 Z M 344.5,63.5 C 355.464,63.7712 359.297,69.1046 356,79.5C 349.332,86.1991 343.332,85.5324 338,77.5C 336.669,71.1632 338.836,66.4965 344.5,63.5 Z M 92.5,161.5 C 125.25,184.145 161.583,197.645 201.5,202C 251.358,208.686 300.692,206.02 349.5,194C 374.665,187.065 397.665,176.565 418.5,162.5C 415.186,185.301 404.52,203.801 386.5,218C 357.452,238.128 325.119,249.128 289.5,251C 245.559,255.601 202.559,251.267 160.5,238C 138.588,229.813 120.421,216.647 106,198.5C 98.6363,187.245 94.1363,174.912 92.5,161.5 Z M 172.5,257.5 C 214.672,267.773 257.338,270.273 300.5,265C 313.241,263.517 325.741,261.017 338,257.5C 353.813,286.075 362.479,316.742 364,349.5C 364.02,384.56 364.686,419.56 366,454.5C 366.903,455.701 368.069,456.535 369.5,457C 383.351,457.712 396.351,461.379 408.5,468C 411.167,470.667 413.833,473.333 416.5,476C 386.494,476.833 356.494,476.667 326.5,475.5C 328.059,471.381 329.893,467.381 332,463.5C 332.667,429.833 332.667,396.167 332,362.5C 326.827,332.656 309.994,312.489 281.5,302C 247.294,292.342 218.127,300.509 194,326.5C 185.711,337.084 180.711,349.084 179,362.5C 178.333,396.167 178.333,429.833 179,463.5C 181.107,467.381 182.941,471.381 184.5,475.5C 154.506,476.667 124.506,476.833 94.5,476C 103.156,466.67 113.823,461.004 126.5,459C 131.489,458.251 136.489,457.585 141.5,457C 142.931,456.535 144.097,455.701 145,454.5C 146.314,419.227 146.98,383.893 147,348.5C 148.822,316.2 157.322,285.867 172.5,257.5 Z M 77.5,275.5 C 97.779,277.315 116.446,283.815 133.5,295C 136.002,296.337 138.002,298.171 139.5,300.5C 135.743,315.963 133.243,331.63 132,347.5C 131.833,377.172 131.333,406.839 130.5,436.5C 100.395,418.23 74.8951,394.896 54,366.5C 43.1677,351.336 36.6677,334.503 34.5,316C 38.4025,291.26 52.7358,277.76 77.5,275.5 Z M 431.5,275.5 C 457.667,277.003 472.667,290.67 476.5,316.5C 474.191,334.787 467.691,351.454 457,366.5C 436.105,394.896 410.605,418.23 380.5,436.5C 379.667,406.839 379.167,377.172 379,347.5C 377.757,331.631 375.257,315.965 371.5,300.5C 374.69,297.155 378.357,294.321 382.5,292C 397.798,282.957 414.131,277.457 431.5,275.5 Z M 250.5,312.5 C 279.062,312.183 299.895,324.517 313,349.5C 314.741,354.054 316.074,358.721 317,363.5C 317.667,395.5 317.667,427.5 317,459.5C 315.833,464 313,466.833 308.5,468C 273.167,479.333 237.833,479.333 202.5,468C 198,466.833 195.167,464 194,459.5C 193.333,427.5 193.333,395.5 194,363.5C 198.828,341.342 211.661,325.842 232.5,317C 238.553,315.153 244.553,313.653 250.5,312.5 Z M 84.5,455.5 C 87.5184,455.335 90.5184,455.502 93.5,456C 85.6791,460.823 80.6791,467.657 78.5,476.5C 65.4957,476.667 52.4957,476.5 39.5,476C 43.6539,470.251 48.9872,465.918 55.5,463C 65.0084,459.374 74.6751,456.874 84.5,455.5 Z M 417.5,456.5 C 431.283,455.554 444.616,458.054 457.5,464C 463.365,466.599 468.031,470.599 471.5,476C 458.504,476.5 445.504,476.667 432.5,476.5C 430.398,467.618 425.398,460.951 417.5,456.5 Z"/></g>
<g><path style="opacity:0.919" fill="#000000" d="M 158.5,48.5 C 176.67,47.5094 186.67,56.0094 188.5,74C 187.376,89.7905 178.876,98.2905 163,99.5C 144.014,96.5373 136.014,85.5373 139,66.5C 142.519,57.1428 149.019,51.1428 158.5,48.5 Z M 160.5,63.5 C 154.565,66.305 152.398,70.9717 154,77.5C 159.223,85.4753 165.223,86.142 172,79.5C 175.015,69.3386 171.182,64.0052 160.5,63.5 Z"/></g>
<g><path style="opacity:0.921" fill="#000000" d="M 342.5,48.5 C 364.015,48.5117 373.848,59.1783 372,80.5C 368.28,92.4553 360.114,98.7887 347.5,99.5C 329.356,96.5176 321.189,85.8509 323,67.5C 326.121,57.5437 332.621,51.2104 342.5,48.5 Z M 344.5,63.5 C 338.836,66.4965 336.669,71.1632 338,77.5C 343.332,85.5324 349.332,86.1991 356,79.5C 359.297,69.1046 355.464,63.7712 344.5,63.5 Z"/></g>
</svg>
